<svg xmlns="http://www.w3.org/2000/svg" version="1.1" xmlns:xlink="http://www.w3.org/1999/xlink" xmlns:svgjs="http://svgjs.dev/svgjs" viewBox="0 0 800 800"><defs><filter id="bbburst-blur-1" x="-100%" y="-100%" width="400%" height="400%"><feGaussianBlur in="SourceGraphic" stdDeviation="1"></feGaussianBlur></filter><filter id="bbburst-blur-2" x="-100%" y="-100%" width="400%" height="400%"><feGaussianBlur in="SourceGraphic" stdDeviation="2"></feGaussianBlur></filter><filter id="bbburst-blur-3" x="-100%" y="-100%" width="400%" height="400%"><feGaussianBlur in="SourceGraphic" stdDeviation="4"></feGaussianBlur></filter><filter id="bbburst-blur-4" x="-100%" y="-100%" width="400%" height="400%"><feGaussianBlur in="SourceGraphic" stdDeviation="12"></feGaussianBlur></filter><symbol id="bbburst-shape-1" viewBox="0 0 194 167"><path d="m97 0 96.129 166.5H.871L97 0Z"></path></symbol><symbol id="bbburst-shape-4" viewBox="0 0 149 143"><path d="M71.647 2.781c.898-2.764 4.808-2.764 5.706 0l15.445 47.534a3 3 0 0 0 2.853 2.073h49.98c2.906 0 4.115 3.719 1.764 5.427L106.96 87.193a2.999 2.999 0 0 0-1.09 3.354l15.445 47.534c.898 2.764-2.266 5.062-4.617 3.354l-40.435-29.378a3 3 0 0 0-3.526 0l-40.435 29.378c-2.351 1.708-5.515-.59-4.617-3.354L43.13 90.547a3 3 0 0 0-1.09-3.354L1.605 57.815c-2.35-1.708-1.142-5.427 1.764-5.427h49.98a3 3 0 0 0 2.853-2.073L71.647 2.781Z"></path></symbol><symbol id="bbburst-shape-6" viewBox="0 0 133 116"><path d="M59.7487 10.2513c-13.6683-13.66839-35.8291-13.66839-49.4974 0-13.66839 13.6683-13.66839 35.8291 0 49.4974l49.4974-49.4974ZM66.5 66.5 41.7513 91.2487 66.5 115.997l24.7487-24.7483L66.5 66.5Zm56.249-6.7513c13.668-13.6683 13.668-35.8291 0-49.4974-13.669-13.66839-35.8294-13.66839-49.4977 0l49.4977 49.4974Zm-112.4977 0 31.5 31.5 49.4974-49.4974-31.5-31.5-49.4974 49.4974Zm80.9974 31.5 31.5003-31.5-49.4977-49.4974-31.5 31.5 49.4974 49.4974Z"></path></symbol><symbol id="bbburst-shape-8" viewBox="0 0 87 168"><path d="m12 12 31.2546 18.0749c16.4102 9.4902 20.014 31.6325 7.4603 45.8369L36.3296 92.1884c-12.5684 14.2206-8.9394 36.3916 7.5068 45.8636L75 156" stroke-width="14" stroke-linecap="round" stroke-linejoin="round"></path></symbol><symbol id="bbburst-shape-10" viewBox="0 0 145 145"><circle cx="72.5" cy="72.5" r="61.5" fill="none" stroke-width="22"></circle></symbol></defs><use xlink:href="#bbburst-shape-10" width="44.70059038090339" opacity="0.09071615361945429" transform="matrix(1.5706173031985984,-0.7717909606189762,0.7717909606189762,1.5706173031985984,-304.5588427771563,-404.1137410476522)" fill="none" stroke="#ffbd9b" filter="url(#bbburst-blur-4)"></use><use xlink:href="#bbburst-shape-4" width="12.917732081274316" opacity="0.9312861040123025" transform="matrix(0.9033401887331457,-0.4289248225733324,0.4289248225733324,0.9033401887331457,210.75913970934832,70.0089437746546)" fill="#2c2891"></use><use xlink:href="#bbburst-shape-10" width="15.162593283170843" opacity="0.9685762566649214" transform="matrix(0.986004620024483,0.16671799330118814,-0.16671799330118814,0.986004620024483,472.68863999451594,8.616638045704917)" fill="none" stroke="#ffbd9b"></use><use xlink:href="#bbburst-shape-4" width="22.77909263145691" opacity="0.668182913533849" transform="matrix(0.9462267666050989,-0.32350410532180235,0.32350410532180235,0.9462267666050989,308.24660308040484,-116.03600108532396)" fill="#00a19d" filter="url(#bbburst-blur-1)"></use><use xlink:href="#bbburst-shape-6" width="44.01491313877981" opacity="0.18977283996562533" transform="matrix(0.9752343635570793,0.7819321812903077,-0.7819321812903077,0.9752343635570793,937.2197283442592,261.88832883990153)" fill="#2c2891" filter="url(#bbburst-blur-3)"></use><use xlink:href="#bbburst-shape-4" width="47.37057512310013" opacity="0.15238705237665173" transform="matrix(1.1422083366540274,-0.5077992868033985,0.5077992868033985,1.1422083366540274,-113.40127497769011,-300.25783984131255)" fill="#ffbd9b" filter="url(#bbburst-blur-3)"></use><use xlink:href="#bbburst-shape-4" width="13.733603118997157" opacity="0.8395130120323037" transform="matrix(0.7412194842857056,-0.6712627474508269,0.6712627474508269,0.7412194842857056,57.188866613205846,128.71151334657787)" fill="#2c2891"></use><use xlink:href="#bbburst-shape-8" width="33.031373435502516" opacity="0.5625310016207301" transform="matrix(0.9444546195767215,-0.32864185911138943,0.32864185911138943,0.9444546195767215,58.218808469177986,-1.2679556088392587)" fill="none" stroke="#ffa6d5" filter="url(#bbburst-blur-1)"></use><use xlink:href="#bbburst-shape-1" width="31.63046222620817" opacity="0.5059865482597756" transform="matrix(0.9397067931863076,-0.3419812024651444,0.3419812024651444,0.9397067931863076,311.35810010087926,242.75696350087077)" fill="#00a19d" filter="url(#bbburst-blur-2)"></use><use xlink:href="#bbburst-shape-1" width="48.19676624159028" opacity="-0.07621190793758004" transform="matrix(1.3558061275677826,1.106476273785233,-1.106476273785233,1.3558061275677826,1143.2882168424744,182.32430456525083)" fill="#ff5c58" filter="url(#bbburst-blur-4)"></use><use xlink:href="#bbburst-shape-10" width="43.302782901617" opacity="0.14494848276098782" transform="matrix(1.1784605758046847,0.41681011416961905,-0.41681011416961905,1.1784605758046847,262.96994981966736,185.36104670765042)" fill="none" stroke="#00a19d" filter="url(#bbburst-blur-3)"></use><use xlink:href="#bbburst-shape-4" width="26.49401997739729" opacity="0.3215308072135057" transform="matrix(0.8865952421436611,-0.8811633654483275,0.8811633654483275,0.8865952421436611,-5.96612636571092,-245.38331130328856)" fill="#00a19d" filter="url(#bbburst-blur-3)"></use><use xlink:href="#bbburst-shape-10" width="22.82165416026938" opacity="0.7495173452223145" transform="matrix(0.9262780288861123,-0.3768408327170219,0.3768408327170219,0.9262780288861123,133.60136098562538,74.54046585967546)" fill="none" stroke="#00a19d" filter="url(#bbburst-blur-1)"></use><use xlink:href="#bbburst-shape-10" width="42.5492467336487" opacity="0.3410564977115248" transform="matrix(0.9964976548732726,-0.08362071413273292,0.08362071413273292,0.9964976548732726,634.2369812444414,70.05351945726562)" fill="none" stroke="#ffa6d5" filter="url(#bbburst-blur-2)"></use><use xlink:href="#bbburst-shape-6" width="13.544052396942796" opacity="0.8118333272896356" transform="matrix(0.7220881443935592,-0.6918010636926387,0.6918010636926387,0.7220881443935592,198.36885018357026,88.04354720992512)" fill="#2c2891"></use><use xlink:href="#bbburst-shape-10" width="26.330357721099357" opacity="0.4533563093719889" transform="matrix(0.7909686726273417,-0.6118566489972477,0.6118566489972477,0.7909686726273417,122.23637244755395,336.6163221487155)" fill="none" stroke="#2c2891" filter="url(#bbburst-blur-2)"></use><use xlink:href="#bbburst-shape-10" width="22.55908064307013" opacity="0.4067791241923405" transform="matrix(0.9963628530689672,-0.08521188311654418,0.08521188311654418,0.9963628530689672,568.385026056329,162.3870705378573)" fill="none" stroke="#ffa6d5" filter="url(#bbburst-blur-2)"></use><use xlink:href="#bbburst-shape-10" width="21.01176332769802" opacity="0.558755548713872" transform="matrix(0.8451382110168203,-0.5345478503177133,0.5345478503177133,0.8451382110168203,184.52441570304006,-130.86798033309208)" fill="none" stroke="#ffbd9b" filter="url(#bbburst-blur-1)"></use><use xlink:href="#bbburst-shape-6" width="24.41160843301365" opacity="0.6471579576540962" transform="matrix(0.7158817272060577,-0.6982215641560147,0.6982215641560147,0.7158817272060577,136.88425459932893,278.9825089932599)" fill="#ffa6d5" filter="url(#bbburst-blur-1)"></use><use xlink:href="#bbburst-shape-4" width="35.92069119046397" opacity="0.18111542303341022" transform="matrix(1.2480405002038681,0.06996363234480067,-0.06996363234480067,1.2480405002038681,38.968261189927844,-63.074967016931055)" fill="#2c2891" filter="url(#bbburst-blur-3)"></use><use xlink:href="#bbburst-shape-6" width="9.800599267573835" opacity="0.907098362231056" transform="matrix(0.7259013074511004,0.6877988745562057,-0.6877988745562057,0.7259013074511004,634.1854702977488,124.99586052763567)" fill="#2c2891"></use><use xlink:href="#bbburst-shape-6" width="15.663334514414906" opacity="0.8531945093667755" transform="matrix(0.746732671723057,-0.6651242868677592,0.6651242868677592,0.746732671723057,173.14349322058547,58.188691188692474)" fill="#2c2891"></use><use xlink:href="#bbburst-shape-4" width="42.004172293004395" opacity="0.3047567147926076" transform="matrix(1.0549019898762415,0.6705831728839802,-0.6705831728839802,1.0549019898762415,380.04651538313215,128.68296046261645)" fill="#ff5c58" filter="url(#bbburst-blur-3)"></use><use xlink:href="#bbburst-shape-10" width="24.987492914835798" opacity="0.5754746836137695" transform="matrix(0.8180419614362329,-0.5751585427771728,0.5751585427771728,0.8180419614362329,308.5022143693753,199.792374685107)" fill="none" stroke="#2c2891" filter="url(#bbburst-blur-1)"></use><use xlink:href="#bbburst-shape-10" width="31.623550019992983" opacity="0.4866494033779071" transform="matrix(0.9180873326407727,-0.39637816494422506,0.39637816494422506,0.9180873326407727,318.25281682854853,-173.158715014371)" fill="none" stroke="#00a19d" filter="url(#bbburst-blur-2)"></use><use xlink:href="#bbburst-shape-10" width="33.110203884758114" opacity="0.1486163173569104" transform="matrix(0.9395116827338336,-0.8245106415363239,0.8245106415363239,0.9395116827338336,416.0524313539659,164.98878352286386)" fill="none" stroke="#00a19d" filter="url(#bbburst-blur-3)"></use><use xlink:href="#bbburst-shape-6" width="26.557538478712345" opacity="0.6562327901163139" transform="matrix(0.7331429535266911,0.6800745618637415,-0.6800745618637415,0.7331429535266911,807.0837799064313,152.17950359427266)" fill="#00a19d" filter="url(#bbburst-blur-1)"></use><use xlink:href="#bbburst-shape-1" width="24.863372284593318" opacity="0.5708652854886214" transform="matrix(0.8255902484744654,0.5642700963402815,-0.5642700963402815,0.8255902484744654,556.9337960021177,-121.26338833452249)" fill="#ffa6d5" filter="url(#bbburst-blur-1)"></use><use xlink:href="#bbburst-shape-8" width="29.40070317016415" opacity="0.1752059094581777" transform="matrix(1.208828134089717,0.3181737610695978,-0.3181737610695978,1.208828134089717,867.2160258402456,-187.18589920204744)" fill="none" stroke="#00a19d" filter="url(#bbburst-blur-3)"></use><use xlink:href="#bbburst-shape-8" width="33.81115938834566" opacity="0.28302237975676925" transform="matrix(1.2289771367334494,-0.22828753226239062,0.22828753226239062,1.2289771367334494,566.4412276282101,-250.56880867450988)" fill="none" stroke="#ffa6d5" filter="url(#bbburst-blur-3)"></use><use xlink:href="#bbburst-shape-4" width="28.802194949574158" opacity="0.5279924592216566" transform="matrix(0.9694318542883582,-0.24536071382973162,0.24536071382973162,0.9694318542883582,144.0280486425421,-140.46922375761335)" fill="#ffa6d5" filter="url(#bbburst-blur-2)"></use><use xlink:href="#bbburst-shape-8" width="29.752618635104554" opacity="0.5031066863661854" transform="matrix(0.8737372301560999,-0.4863982448972718,0.4863982448972718,0.8737372301560999,-28.562358676344274,91.72036706681814)" fill="none" stroke="#ffa6d5" filter="url(#bbburst-blur-2)"></use><use xlink:href="#bbburst-shape-10" width="26.658865939943045" opacity="0.16028502429595026" transform="matrix(0.9466056374772324,-0.8163563971062655,0.8163563971062655,0.9466056374772324,-29.470168145269838,-334.68188790998255)" fill="none" stroke="#ff5c58" filter="url(#bbburst-blur-3)"></use><use xlink:href="#bbburst-shape-1" width="19.891354184169472" opacity="0.7024177600468571" transform="matrix(0.8134678908365941,-0.5816098267548985,0.5816098267548985,0.8134678908365941,147.5997561251654,-52.98338600854697)" fill="#ffbd9b" filter="url(#bbburst-blur-1)"></use><use xlink:href="#bbburst-shape-4" width="20.164627757123267" opacity="0.7217716374054601" transform="matrix(0.9015171846506762,-0.43274330240862025,0.43274330240862025,0.9015171846506762,313.0688026198373,125.0353812783917)" fill="#00a19d" filter="url(#bbburst-blur-1)"></use><use xlink:href="#bbburst-shape-4" width="23.037792881017207" opacity="0.5671500053792563" transform="matrix(0.7450664138083949,0.6669902840481994,-0.6669902840481994,0.7450664138083949,846.8025223539626,45.63126319940767)" fill="#2c2891" filter="url(#bbburst-blur-1)"></use><use xlink:href="#bbburst-shape-10" width="14.745230458709283" opacity="0.8921366249945383" transform="matrix(0.8375061857773266,-0.5464278440788995,0.5464278440788995,0.8375061857773266,215.07609237035356,96.77877388240955)" fill="none" stroke="#2c2891"></use><use xlink:href="#bbburst-shape-4" width="40.73631315166941" opacity="0.3023175923220116" transform="matrix(0.9115386190580941,-0.8553346397554953,0.8553346397554953,0.9115386190580941,-241.05134365869662,-88.42079267551918)" fill="#00a19d" filter="url(#bbburst-blur-3)"></use><use xlink:href="#bbburst-shape-4" width="40.19267724341178" opacity="0.256191841797203" transform="matrix(1.2413285261827554,0.14698125759751987,-0.14698125759751987,1.2413285261827554,720.2565334072373,73.76322244999761)" fill="#2c2891" filter="url(#bbburst-blur-3)"></use><use xlink:href="#bbburst-shape-4" width="18.016422376057264" opacity="0.8134592174952328" transform="matrix(0.750639867805801,0.6607115776649366,-0.6607115776649366,0.750639867805801,733.1684935033966,130.17157312462604)" fill="#ffa6d5"></use><use xlink:href="#bbburst-shape-10" width="45.586739937069744" opacity="0.17270864790838336" transform="matrix(1.0111760925441409,0.7348625108597955,-0.7348625108597955,1.0111760925441409,928.4910936406293,-289.99255348258924)" fill="none" stroke="#2c2891" filter="url(#bbburst-blur-3)"></use><use xlink:href="#bbburst-shape-10" width="36.704091708710465" opacity="0.04637753038690906" transform="matrix(1.7245481591160634,-0.29737795293094044,0.29737795293094044,1.7245481591160634,11.741684400364989,-641.6729228203353)" fill="none" stroke="#2c2891" filter="url(#bbburst-blur-4)"></use><use xlink:href="#bbburst-shape-6" width="33.065357917120366" opacity="0.3534207533506779" transform="matrix(0.8311974339916618,-0.5559773608031868,0.5559773608031868,0.8311974339916618,-40.03702619828846,-130.8467895607455)" fill="#ffbd9b" filter="url(#bbburst-blur-2)"></use><use xlink:href="#bbburst-shape-10" width="32.0002501366992" opacity="0.1920178904139338" transform="matrix(1.0625862662669552,-0.658339142646745,0.658339142646745,1.0625862662669552,-237.35681707195891,-83.32028874569716)" fill="none" stroke="#2c2891" filter="url(#bbburst-blur-3)"></use><use xlink:href="#bbburst-shape-8" width="32.58086470145861" opacity="0.2024844692482458" transform="matrix(1.2086083157151297,-0.31900774157414635,0.31900774157414635,1.2086083157151297,611.3896928153983,-66.25406649325612)" fill="none" stroke="#2c2891" filter="url(#bbburst-blur-3)"></use><use xlink:href="#bbburst-shape-1" width="26.0765409115228" opacity="0.46363826163984345" transform="matrix(0.9830981914126016,-0.18307907046211405,0.18307907046211405,0.9830981914126016,97.3111379098845,115.57965757680199)" fill="#ff5c58" filter="url(#bbburst-blur-2)"></use><use xlink:href="#bbburst-shape-4" width="37.28301300812683" opacity="0.49049109000501734" transform="matrix(0.8166817180650021,0.5770883566477463,-0.5770883566477463,0.8166817180650021,411.8796447557816,-42.61839725395646)" fill="#2c2891" filter="url(#bbburst-blur-2)"></use><use xlink:href="#bbburst-shape-6" width="36.45982907174266" opacity="0.43283227159241655" transform="matrix(0.8764523168399241,-0.48148866685097513,0.48148866685097513,0.8764523168399241,342.4851919420221,263.91881302969404)" fill="#ffa6d5" filter="url(#bbburst-blur-2)"></use><use xlink:href="#bbburst-shape-8" width="37.06918122426424" opacity="0.23329202949213657" transform="matrix(0.9522951897332633,0.8097122153029976,-0.8097122153029976,0.9522951897332633,542.1831050353385,307.59519211829195)" fill="none" stroke="#2c2891" filter="url(#bbburst-blur-3)"></use><use xlink:href="#bbburst-shape-10" width="15.69733217173209" opacity="0.7413545961039023" transform="matrix(0.795467383124203,-0.6059964045978594,0.6059964045978594,0.795467383124203,88.5236977490992,184.54159978220537)" fill="none" stroke="#ffbd9b" filter="url(#bbburst-blur-1)"></use><use xlink:href="#bbburst-shape-4" width="14.286356194749398" opacity="0.8151218183987037" transform="matrix(0.7546094417084185,0.6561742074209478,-0.6561742074209478,0.7546094417084185,596.7060001983059,150.72849039056314)" fill="#2c2891"></use><use xlink:href="#bbburst-shape-6" width="17.632021678775057" opacity="0.6759154172725375" transform="matrix(0.8143356257772097,-0.5803942527196838,0.5803942527196838,0.8143356257772097,14.837602609585389,81.28699384811938)" fill="#ffa6d5" filter="url(#bbburst-blur-1)"></use><use xlink:href="#bbburst-shape-6" width="17.899809246507107" opacity="0.8053015333517116" transform="matrix(0.9277556040060698,0.37318834284491337,-0.37318834284491337,0.9277556040060698,558.8316912329803,-60.216726287208814)" fill="#ff5c58"></use><use xlink:href="#bbburst-shape-6" width="16.00792688700222" opacity="0.7635783769887732" transform="matrix(0.9991302425935992,-0.04169842125135838,0.04169842125135838,0.9991302425935992,481.29821598444863,10.071513380852082)" fill="#ffbd9b" filter="url(#bbburst-blur-1)"></use><use xlink:href="#bbburst-shape-8" width="21.889480172561502" opacity="0.7758128758281233" transform="matrix(0.9324446413899433,0.3613128709901988,-0.3613128709901988,0.9324446413899433,536.4402315972503,123.92958323795756)" fill="none" stroke="#ffa6d5" filter="url(#bbburst-blur-1)"></use><use xlink:href="#bbburst-shape-6" width="22.45328681990095" opacity="0.7417932571010488" transform="matrix(0.8035947874139394,-0.5951767952811546,0.5951767952811546,0.8035947874139394,228.72786935677016,-2.8020614377623474)" fill="#2c2891" filter="url(#bbburst-blur-1)"></use><use xlink:href="#bbburst-shape-10" width="30.79675106949464" opacity="0.1999425942246681" transform="matrix(1.2490596379799783,0.0484770127929262,-0.0484770127929262,1.2490596379799783,60.18395609059429,18.106406151087413)" fill="none" stroke="#ffa6d5" filter="url(#bbburst-blur-3)"></use><use xlink:href="#bbburst-shape-4" width="17.656481916238572" opacity="0.8607810920281886" transform="matrix(0.9906418764788244,-0.13648689521896842,0.13648689521896842,0.9906418764788244,314.84999844857583,-53.764807261975875)" fill="#ff5c58"></use><use xlink:href="#bbburst-shape-10" width="13.64502376440824" opacity="0.8911797829845155" transform="matrix(0.9217085545104633,0.38788315320755073,-0.38788315320755073,0.9217085545104633,597.5572831827678,23.47170802215743)" fill="none" stroke="#ff5c58"></use><use xlink:href="#bbburst-shape-10" width="36.76553558520224" opacity="0.07088165543681657" transform="matrix(1.470362449447762,-0.9489648398407484,0.9489648398407484,1.470362449447762,-365.9178631833677,43.10314994445844)" fill="none" stroke="#2c2891" filter="url(#bbburst-blur-4)"></use><use xlink:href="#bbburst-shape-4" width="38.338608300162704" opacity="-0.08112385217352691" transform="matrix(1.266170928434891,1.2080195279821955,-1.2080195279821955,1.266170928434891,507.5786931751725,-466.13040506281374)" fill="#2c2891" filter="url(#bbburst-blur-4)"></use><use xlink:href="#bbburst-shape-6" width="15.03877767322291" opacity="0.8348720446017657" transform="matrix(0.8883612137031374,-0.45914524280219726,0.45914524280219726,0.8883612137031374,136.24320606424413,36.649896395230655)" fill="#00a19d"></use><use xlink:href="#bbburst-shape-6" width="28.416805903511765" opacity="0.17918596391790897" transform="matrix(1.0258208397555892,0.714276980395657,-0.714276980395657,1.0258208397555892,731.2935114178504,343.9576895733727)" fill="#00a19d" filter="url(#bbburst-blur-3)"></use><use xlink:href="#bbburst-shape-4" width="39.25950960710393" opacity="0.08300943382599546" transform="matrix(1.6483333475790278,-0.5877900775437735,0.5877900775437735,1.6483333475790278,336.5835226389667,-606.4092230689769)" fill="#ffbd9b" filter="url(#bbburst-blur-4)"></use><use xlink:href="#bbburst-shape-4" width="13.066869519859132" opacity="0.8846369909215744" transform="matrix(0.7946655748980257,-0.6070474644309045,0.6070474644309045,0.7946655748980257,107.95886907738344,58.619308766310894)" fill="#ffa6d5"></use><use xlink:href="#bbburst-shape-10" width="38.19600062086109" opacity="-0.07489609418977095" transform="matrix(1.726313326174048,0.2869534803306881,-0.2869534803306881,1.726313326174048,822.0648685122901,-639.8034604583811)" fill="none" stroke="#00a19d" filter="url(#bbburst-blur-4)"></use><use xlink:href="#bbburst-shape-4" width="39.82408573466342" opacity="0.08758804402059595" transform="matrix(1.6306865364469312,-0.6351074081214226,0.6351074081214226,1.6306865364469312,310.79737427611093,120.51104355038672)" fill="#ffa6d5" filter="url(#bbburst-blur-4)"></use><use xlink:href="#bbburst-shape-10" width="29.754339285510248" opacity="0.5945491392366976" transform="matrix(0.922334483899311,0.3863924168642438,-0.3863924168642438,0.922334483899311,689.7673536628198,-80.07807118292124)" fill="none" stroke="#00a19d" filter="url(#bbburst-blur-1)"></use><use xlink:href="#bbburst-shape-4" width="14.336116662537695" opacity="0.8449708668632622" transform="matrix(0.9172726989571856,-0.3982597089184398,0.3982597089184398,0.9172726989571856,214.46539040738116,102.89297855314112)" fill="#2c2891"></use><use xlink:href="#bbburst-shape-6" width="40.990882193644346" opacity="0.27308928197424376" transform="matrix(0.9466016117316864,-0.816361065134156,0.816361065134156,0.9466016117316864,16.407264990439273,363.02760825151415)" fill="#00a19d" filter="url(#bbburst-blur-3)"></use><use xlink:href="#bbburst-shape-1" width="33.87407220721782" opacity="0.5083270817043953" transform="matrix(0.9796240846318469,0.2008398685749817,-0.2008398685749817,0.9796240846318469,307.38175457400365,161.3366843828079)" fill="#ffa6d5" filter="url(#bbburst-blur-2)"></use><use xlink:href="#bbburst-shape-10" width="32.60378349373407" opacity="0.6510066201020044" transform="matrix(0.9874860431893777,-0.15770641872221425,0.15770641872221425,0.9874860431893777,182.11262700454535,-66.0724055089272)" fill="none" stroke="#ffa6d5" filter="url(#bbburst-blur-1)"></use><use xlink:href="#bbburst-shape-10" width="23.56400356185366" opacity="0.6199204509296385" transform="matrix(0.9960073636004037,-0.08927111321011627,0.08927111321011627,0.9960073636004037,192.77700584810486,63.671191958584814)" fill="none" stroke="#ffa6d5" filter="url(#bbburst-blur-1)"></use><use xlink:href="#bbburst-shape-6" width="40.90355266612421" opacity="0.06957659969940111" transform="matrix(1.7290935177753137,0.26969539630366474,-0.26969539630366474,1.7290935177753137,828.9097092589616,-516.8898131722173)" fill="#00a19d" filter="url(#bbburst-blur-4)"></use><use xlink:href="#bbburst-shape-4" width="31.976579397794772" opacity="0.48711598842504744" transform="matrix(0.861821233557048,-0.5072121463354442,0.5072121463354442,0.861821233557048,414.0378019993964,70.555646679181)" fill="#2c2891" filter="url(#bbburst-blur-2)"></use><use xlink:href="#bbburst-shape-1" width="33.893288411685724" opacity="0.2916020523450795" transform="matrix(1.0530755145613042,-0.6734478158190466,0.6734478158190466,1.0530755145613042,250.2755882861028,-297.38534841644366)" fill="#00a19d" filter="url(#bbburst-blur-3)"></use><use xlink:href="#bbburst-shape-4" width="11.299484210344149" opacity="0.8927008735382159" transform="matrix(0.998814652042835,-0.048675361986844204,0.048675361986844204,0.998814652042835,387.13003953989556,47.46612631751401)" fill="#2c2891"></use><use xlink:href="#bbburst-shape-1" width="44.07275183409244" opacity="0.04198821336019476" transform="matrix(1.7159095835724103,0.3437358011676377,-0.3437358011676377,1.7159095835724103,853.6767948035847,-47.82169230869886)" fill="#2c2891" filter="url(#bbburst-blur-4)"></use><use xlink:href="#bbburst-shape-4" width="34.951555377613765" opacity="0.190690154748122" transform="matrix(1.1326106864491177,0.5288601260647832,-0.5288601260647832,1.1326106864491177,650.9534716130264,-421.59306394824915)" fill="#00a19d" filter="url(#bbburst-blur-3)"></use><use xlink:href="#bbburst-shape-6" width="21.90430032368107" opacity="0.7344844456501765" transform="matrix(0.8691066497935631,-0.49462473784133454,0.49462473784133454,0.8691066497935631,243.4937898829189,165.89038837774433)" fill="#2c2891" filter="url(#bbburst-blur-1)"></use><use xlink:href="#bbburst-shape-4" width="29.29010808872266" opacity="0.39030988256995003" transform="matrix(0.7892783289500163,-0.6140356011257571,0.6140356011257571,0.7892783289500163,-127.35354087188756,45.6836878383761)" fill="#2c2891" filter="url(#bbburst-blur-2)"></use><use xlink:href="#bbburst-shape-6" width="24.01949155271256" opacity="0.5903532568054004" transform="matrix(0.9750501831653914,0.2219845497081649,-0.2219845497081649,0.9750501831653914,388.01450729475425,168.7090881272223)" fill="#ffa6d5" filter="url(#bbburst-blur-1)"></use><use xlink:href="#bbburst-shape-10" width="11.537329973560354" opacity="0.9574662869469405" transform="matrix(0.7816675371264276,0.6236953273856595,-0.6236953273856595,0.7816675371264276,629.3003294442101,72.74237888824507)" fill="none" stroke="#ffa6d5"></use><use xlink:href="#bbburst-shape-6" width="23.341222356787434" opacity="0.5879586786436666" transform="matrix(0.9299427451620821,-0.36770435232726145,0.36770435232726145,0.9299427451620821,354.76886079045016,-114.91995542187814)" fill="#00a19d" filter="url(#bbburst-blur-1)"></use><use xlink:href="#bbburst-shape-4" width="15.680112820147876" opacity="0.8248159068169081" transform="matrix(0.8680614640125217,-0.4964567400050457,0.4964567400050457,0.8680614640125217,235.70945747495497,123.9568246223447)" fill="#00a19d"></use><use xlink:href="#bbburst-shape-10" width="40.72859276062247" opacity="0.341615553486627" transform="matrix(0.8648998517253488,-0.5019444655392364,0.5019444655392364,0.8648998517253488,-16.81478805227681,284.2746204385997)" fill="none" stroke="#ff5c58" filter="url(#bbburst-blur-2)"></use><use xlink:href="#bbburst-shape-6" width="37.722677631945956" opacity="0.23444589571188335" transform="matrix(1.1332931828498662,-0.5273960198048706,0.5273960198048706,1.1332931828498662,1.7410035185265258,-345.27760270612305)" fill="#2c2891" filter="url(#bbburst-blur-3)"></use><use xlink:href="#bbburst-shape-10" width="35.09775457764342" opacity="0.36428671780402666" transform="matrix(0.7743006523796154,-0.6328179040802354,0.6328179040802354,0.7743006523796154,414.6337682541623,49.62292063102882)" fill="none" stroke="#2c2891" filter="url(#bbburst-blur-2)"></use><use xlink:href="#bbburst-shape-10" width="27.469301993448568" opacity="0.15188291944815635" transform="matrix(1.153318097244961,-0.4820346113789576,0.4820346113789576,1.153318097244961,87.3084144081221,312.4922059318329)" fill="none" stroke="#2c2891" filter="url(#bbburst-blur-3)"></use><use xlink:href="#bbburst-shape-6" width="31.273395434395283" opacity="0.04409301981816749" transform="matrix(1.7247616708893636,-0.29613709431770036,0.29613709431770036,1.7247616708893636,17.606378485456077,73.72734393774408)" fill="#00a19d" filter="url(#bbburst-blur-4)"></use><use xlink:href="#bbburst-shape-10" width="39.82794377511109" opacity="0.3970750609249686" transform="matrix(0.9995928466996952,-0.02853315311702839,0.02853315311702839,0.9995928466996952,552.7310443035849,-198.6129449469174)" fill="none" stroke="#ff5c58" filter="url(#bbburst-blur-2)"></use><use xlink:href="#bbburst-shape-4" width="29.800371721215903" opacity="0.6096360504203122" transform="matrix(0.9356429143795775,0.3529480652607274,-0.3529480652607274,0.9356429143795775,619.5263775136904,169.97096965154935)" fill="#00a19d" filter="url(#bbburst-blur-1)"></use><use xlink:href="#bbburst-shape-1" width="21.011370755213154" opacity="0.7788083950324822" transform="matrix(0.8103617736571906,-0.5859298556953486,0.5859298556953486,0.8103617736571906,79.7023046405591,19.48420023871938)" fill="#00a19d"></use><use xlink:href="#bbburst-shape-6" width="20.34803813480311" opacity="0.5781260190601829" transform="matrix(0.8526764658775412,0.5224393213939647,-0.5224393213939647,0.8526764658775412,570.8812924731903,241.1642692596128)" fill="#ffbd9b" filter="url(#bbburst-blur-1)"></use><use xlink:href="#bbburst-shape-6" width="16.68433216680791" opacity="0.7539457199432281" transform="matrix(0.9998712573829788,0.0160458299685929,-0.0160458299685929,0.9998712573829788,290.0923161900781,-24.559755628333903)" fill="#00a19d" filter="url(#bbburst-blur-1)"></use><use xlink:href="#bbburst-shape-10" width="50.80175934289808" opacity="-0.08681204812812848" transform="matrix(1.6445668497326675,-0.5982473374452825,0.5982473374452825,1.6445668497326675,-231.53784688659286,98.4835816646679)" fill="none" stroke="#2c2891" filter="url(#bbburst-blur-4)"></use><use xlink:href="#bbburst-shape-6" width="22.794928002132806" opacity="0.6492493639281864" transform="matrix(0.887452837552229,0.46089853668730285,-0.46089853668730285,0.887452837552229,732.0649133564384,42.11419559707292)" fill="#ffa6d5" filter="url(#bbburst-blur-1)"></use><use xlink:href="#bbburst-shape-10" width="40.81379702351838" opacity="0.2890223108809389" transform="matrix(1.1903165028034282,-0.3816367686083413,0.3816367686083413,1.1903165028034282,362.16913759520844,219.77377818809617)" fill="none" stroke="#00a19d" filter="url(#bbburst-blur-3)"></use><use xlink:href="#bbburst-shape-10" width="23.186728424074374" opacity="0.6952833114455519" transform="matrix(0.9000172955977435,-0.4358541816077071,0.4358541816077071,0.9000172955977435,182.4388658883219,178.1915401488934)" fill="none" stroke="#00a19d" filter="url(#bbburst-blur-1)"></use><use xlink:href="#bbburst-shape-4" width="13.094036067488346" opacity="0.9193799781636969" transform="matrix(0.9897491138780068,-0.1428169863066027,0.1428169863066027,0.9897491138780068,347.383623005313,-29.52765284911885)" fill="#00a19d"></use><use xlink:href="#bbburst-shape-10" width="22.981681490097206" opacity="0.6639586284312451" transform="matrix(0.8440981679238562,0.5361886635388607,-0.5361886635388607,0.8440981679238562,513.5529379902154,-64.40489433214265)" fill="none" stroke="#ff5c58" filter="url(#bbburst-blur-1)"></use><use xlink:href="#bbburst-shape-4" width="16.837647149490845" opacity="0.7616119633880636" transform="matrix(0.8157464027510501,-0.5784097219088918,0.5784097219088918,0.8157464027510501,118.59097010758106,-19.614225515710018)" fill="#2c2891" filter="url(#bbburst-blur-1)"></use><use xlink:href="#bbburst-shape-4" width="35.16023186990878" opacity="0.457078710247679" transform="matrix(0.7134666020749871,-0.7006892376250488,0.7006892376250488,0.7134666020749871,323.3180183898158,13.005826622437269)" fill="#ffbd9b" filter="url(#bbburst-blur-2)"></use><use xlink:href="#bbburst-shape-8" width="28.843048947833978" opacity="0.5010180786412646" transform="matrix(0.9782689927149388,0.20733976437842067,-0.20733976437842067,0.9782689927149388,679.3349334106099,83.84184191103003)" fill="none" stroke="#2c2891" filter="url(#bbburst-blur-2)"></use><use xlink:href="#bbburst-shape-10" width="30.340262946118926" opacity="0.34890306601013055" transform="matrix(0.8427503358002415,-0.5383046270547748,0.5383046270547748,0.8427503358002415,-118.91661843105749,106.76947947080112)" fill="none" stroke="#ff5c58" filter="url(#bbburst-blur-2)"></use><use xlink:href="#bbburst-shape-4" width="25.8840639543957" opacity="0.7098680003711155" transform="matrix(0.8592303014241807,0.511588984551575,-0.511588984551575,0.8592303014241807,713.4154131036396,-1.9345215596195544)" fill="#2c2891" filter="url(#bbburst-blur-1)"></use><use xlink:href="#bbburst-shape-8" width="29.208284273543725" opacity="0.6572102978001835" transform="matrix(0.877302436406307,-0.479937949192974,0.479937949192974,0.877302436406307,77.77448555721367,156.10318895239004)" fill="none" stroke="#ffa6d5" filter="url(#bbburst-blur-1)"></use><use xlink:href="#bbburst-shape-1" width="27.984337927297048" opacity="0.42455170131091735" transform="matrix(0.9790747722796126,-0.20350083608089864,0.20350083608089864,0.9790747722796126,199.06277888502112,-225.07928530717865)" fill="#00a19d" filter="url(#bbburst-blur-2)"></use><use xlink:href="#bbburst-shape-4" width="35.38782847910123" opacity="0.3580953640782365" transform="matrix(0.9927813548877945,0.11993823988684782,-0.11993823988684782,0.9927813548877945,479.87950092489194,285.3858352323327)" fill="#ffbd9b" filter="url(#bbburst-blur-2)"></use><use xlink:href="#bbburst-shape-1" width="34.08278970915331" opacity="0.39838746473083864" transform="matrix(0.9988639642410064,-0.047652711787908295,0.047652711787908295,0.9988639642410064,395.0093705179071,-267.6241411495409)" fill="#00a19d" filter="url(#bbburst-blur-2)"></use><use xlink:href="#bbburst-shape-1" width="30.275609117256042" opacity="0.41907199714665366" transform="matrix(0.9444699778391676,0.32859771904333457,-0.32859771904333457,0.9444699778391676,410.3168521476154,255.87535124571218)" fill="#00a19d" filter="url(#bbburst-blur-2)"></use></svg>